<svg xmlns="http://www.w3.org/2000/svg" width="471" height="530" viewBox="0 0 471 530">
<g>
<path d="M 228.00 300.99 L 228.00 326.00 L 58.94 326.00 L 59.22 313.75 L 59.50 301.50 ZM 96.06 255.75 C90.82,259.19 86.07,261.97 85.51,261.94 C84.96,261.90 78.88,259.09 72.00,255.69 L 59.50 249.50 L 59.50 226.55 L 68.00 223.69 C72.68,222.12 87.49,217.05 100.92,212.42 C114.35,207.79 125.52,204.19 125.75,204.42 C126.36,205.02 126.16,234.94 125.54,235.94 C125.25,236.41 120.64,239.66 115.30,243.15 C109.96,246.64 101.30,252.31 96.06,255.75 ZM 174.33 289.52 C169.09,294.18 164.06,297.97 163.15,297.93 C162.24,297.90 154.30,294.47 145.50,290.32 C136.70,286.17 121.40,278.97 111.50,274.32 C101.60,269.67 93.13,265.50 92.69,265.07 C92.24,264.63 95.61,261.89 100.19,258.97 C104.76,256.05 112.52,251.00 117.43,247.74 C121.82,244.82 123.98,243.07 126.28,242.86 C129.04,242.61 132.00,244.59 139.28,249.44 C140.34,250.14 141.48,250.91 142.73,251.73 C148.36,255.45 160.16,263.17 168.96,268.87 C177.76,274.58 184.71,279.65 184.41,280.15 C184.10,280.64 179.57,284.86 174.33,289.52 ZM 144.37 296.21 C144.10,296.64 142.67,296.89 141.19,296.76 C139.71,296.63 120.61,296.40 98.75,296.25 L 59.00 295.98 L 59.00 275.87 C59.00,257.22 59.13,255.80 60.75,256.23 C65.01,257.35 144.81,295.50 144.37,296.21 Z" fill="rgb(126,60,235)"/>
<path d="M 328.24 309.58 C325.50,311.37 312.20,312.60 310.24,311.24 C309.25,310.56 309.04,300.59 309.24,264.93 L 309.50 219.50 L 316.42 219.20 C324.11,218.87 327.66,219.94 331.15,223.66 L 333.50 226.16 L 333.50 264.43 C333.50,305.60 333.43,306.18 328.24,309.58 ZM 389.79 308.19 C384.82,312.84 376.12,311.78 371.84,306.00 C370.13,303.69 369.98,300.97 369.92,269.50 C369.91,265.22 369.90,261.36 369.89,257.88 C369.81,229.72 369.79,226.15 371.56,224.13 C372.03,223.59 372.64,223.16 373.40,222.40 C375.98,219.82 377.65,219.00 380.33,219.00 C386.77,219.00 391.48,222.00 392.88,226.99 C393.64,229.73 394.16,292.37 393.47,298.94 C392.91,304.35 392.32,305.83 389.79,308.19 ZM 347.19 307.50 C346.29,310.76 343.32,311.92 341.24,309.84 C340.29,308.89 340.00,298.19 340.00,264.32 L 340.00 220.04 L 342.58 219.39 C346.54,218.40 356.19,219.86 358.31,221.78 C362.39,225.47 363.00,228.32 363.00,243.70 C362.99,257.80 362.88,258.64 360.60,261.48 L 358.22 264.47 L 360.61 267.31 C362.95,270.09 363.00,270.56 363.00,289.45 C363.00,305.69 362.75,308.96 361.45,310.05 C360.15,311.12 359.53,310.98 357.70,309.14 C355.64,307.08 355.47,305.81 355.00,288.52 C354.49,269.59 354.00,267.47 350.36,268.17 C348.83,268.46 348.36,269.86 347.73,276.01 C347.30,280.13 347.19,288.23 347.49,294.00 C347.78,299.77 347.65,305.85 347.19,307.50 ZM 406.07 309.96 L 405.89 310.06 C404.76,310.66 404.25,310.94 403.76,310.90 C403.32,310.87 402.90,310.59 402.07,310.07 C400.88,309.31 400.60,302.06 400.38,265.80 C400.23,241.95 400.48,221.84 400.92,221.13 C401.46,220.26 404.32,219.76 409.44,219.66 C417.14,219.50 417.15,219.50 420.57,223.24 L 424.00 226.97 L 424.00 243.36 C424.00,255.25 423.61,260.68 422.58,263.13 C421.09,266.69 416.55,270.00 413.18,270.00 L 413.07 270.00 C411.61,270.00 410.57,270.00 409.83,270.47 C408.00,271.63 408.00,275.67 408.00,289.67 L 408.00 290.07 C408.00,307.69 407.87,309.00 406.07,309.96 ZM 377.77 266.94 L 378.05 304.00 L 380.99 304.00 C382.87,304.00 384.30,303.30 384.96,302.07 C385.62,300.84 386.00,287.30 386.00,265.00 C386.00,242.70 385.62,229.16 384.96,227.93 C383.59,225.37 379.17,225.37 378.22,227.94 C377.82,229.00 377.62,246.55 377.77,266.94 ZM 318.46 302.75 C319.21,304.70 320.67,304.24 322.96,301.32 C325.03,298.69 325.07,297.94 324.79,264.24 C324.51,231.40 324.41,229.77 322.54,228.41 C321.46,227.62 320.11,227.13 319.54,227.32 C318.49,227.67 317.45,300.12 318.46,302.75 ZM 408.48 260.75 C409.08,263.18 411.01,263.60 414.07,261.96 C415.85,261.01 416.00,259.73 416.00,245.12 C416.00,230.43 415.85,229.18 413.94,227.45 C412.36,226.02 411.49,225.83 410.19,226.65 C408.74,227.56 408.46,229.94 408.21,243.11 C408.06,251.57 408.18,259.51 408.48,260.75 ZM 348.12 257.75 C349.15,260.53 352.55,260.71 353.96,258.07 C354.53,257.00 355.00,250.06 355.00,242.64 C355.00,231.70 354.70,228.84 353.43,227.57 C351.61,225.75 349.41,225.53 348.45,227.08 C347.46,228.69 347.17,255.16 348.12,257.75 Z" fill="rgb(173,229,65)"/>
<path d="M 391.10 309.05 C388.89,311.70 387.57,312.32 383.46,312.66 C377.37,313.16 372.60,310.98 370.20,306.60 C368.68,303.84 368.50,299.36 368.50,265.50 C368.50,224.03 368.52,223.88 374.33,219.59 C378.71,216.35 386.37,216.91 390.21,220.74 C391.82,222.36 393.53,225.43 394.02,227.58 C395.03,232.08 395.37,295.84 394.41,301.85 C394.06,304.05 392.57,307.29 391.10,309.05 ZM 349.00 290.50 L 349.00 312.00 L 337.98 312.00 L 338.50 218.50 L 345.50 218.18 C355.03,217.75 359.32,219.16 362.08,223.62 C364.10,226.90 364.30,228.52 364.35,242.58 C364.41,256.91 364.27,258.15 362.21,260.93 C359.90,264.06 359.39,266.00 360.88,266.00 C362.96,266.00 363.90,272.66 364.30,290.00 C364.53,300.17 365.05,309.29 365.46,310.25 C366.13,311.80 365.57,312.00 360.73,312.00 C355.39,312.00 355.23,311.92 354.62,308.88 C354.28,307.16 354.00,298.02 354.00,288.58 C354.00,271.34 353.56,269.00 350.30,269.00 C349.27,269.00 349.00,273.53 349.00,290.50 ZM 389.79 308.19 C392.32,305.83 392.91,304.35 393.47,298.94 C394.16,292.37 393.64,229.73 392.88,226.99 C391.48,222.00 386.77,219.00 380.33,219.00 C377.65,219.00 375.98,219.82 373.40,222.40 C372.64,223.16 372.03,223.59 371.56,224.13 C369.79,226.15 369.81,229.72 369.89,257.88 C369.90,261.36 369.91,265.22 369.92,269.50 C369.98,300.97 370.13,303.69 371.84,306.00 C376.12,311.78 384.82,312.84 389.79,308.19 ZM 410.23 291.75 L 409.96 312.00 L 404.95 312.00 C401.86,312.00 399.75,311.52 399.46,310.75 C399.19,310.06 399.10,289.02 399.24,264.00 L 399.50 218.50 L 407.18 218.21 C416.74,217.85 421.05,219.44 423.21,224.13 C425.28,228.63 426.31,247.37 425.04,257.50 C424.14,264.66 423.71,265.78 420.87,268.20 C419.00,269.79 416.22,271.02 414.10,271.20 L 410.50 271.50 ZM 347.19 307.50 C347.65,305.85 347.78,299.77 347.49,294.00 C347.19,288.23 347.30,280.13 347.73,276.01 C348.36,269.86 348.83,268.46 350.36,268.17 C354.00,267.47 354.49,269.59 355.00,288.52 C355.47,305.81 355.64,307.08 357.70,309.14 C359.53,310.98 360.15,311.12 361.45,310.05 C362.75,308.96 363.00,305.69 363.00,289.45 C363.00,270.56 362.95,270.09 360.61,267.31 L 358.22 264.47 L 360.60 261.48 C362.88,258.64 362.99,257.80 363.00,243.70 C363.00,228.32 362.39,225.47 358.31,221.78 C356.19,219.86 346.54,218.40 342.58,219.39 L 340.00 220.04 L 340.00 264.32 C340.00,298.19 340.29,308.89 341.24,309.84 C343.32,311.92 346.29,310.76 347.19,307.50 ZM 406.07 309.96 C407.87,309.00 408.00,307.69 408.00,290.07 L 408.00 289.67 C408.00,275.67 408.00,271.63 409.83,270.47 C410.57,270.00 411.61,270.00 413.07,270.00 L 413.18 270.00 C416.55,270.00 421.09,266.69 422.58,263.13 C423.61,260.68 424.00,255.25 424.00,243.36 L 424.00 226.97 L 420.57 223.24 C417.15,219.50 417.14,219.50 409.44,219.66 C404.32,219.76 401.46,220.26 400.92,221.13 C400.48,221.84 400.23,241.95 400.38,265.80 C400.60,302.06 400.88,309.31 402.07,310.07 C402.90,310.59 403.32,310.87 403.76,310.90 C404.25,310.94 404.76,310.66 405.89,310.06 ZM 377.77 266.94 C377.62,246.55 377.82,229.00 378.22,227.94 C379.17,225.37 383.59,225.37 384.96,227.93 C385.62,229.16 386.00,242.70 386.00,265.00 C386.00,287.30 385.62,300.84 384.96,302.07 C384.30,303.30 382.87,304.00 380.99,304.00 L 378.05 304.00 ZM 379.50 227.50 L 378.98 303.00 L 381.38 303.00 C382.70,303.00 383.95,302.44 384.16,301.75 C384.36,301.06 384.37,283.94 384.19,263.69 L 383.85 226.88 L 381.67 227.19 ZM 408.48 260.75 C408.18,259.51 408.06,251.57 408.21,243.11 C408.46,229.94 408.74,227.56 410.19,226.65 C411.49,225.83 412.36,226.02 413.94,227.45 C415.85,229.18 416.00,230.43 416.00,245.12 C416.00,259.73 415.85,261.01 414.07,261.96 C411.01,263.60 409.08,263.18 408.48,260.75 ZM 348.12 257.75 C347.17,255.16 347.46,228.69 348.45,227.08 C349.41,225.53 351.61,225.75 353.43,227.57 C354.70,228.84 355.00,231.70 355.00,242.64 C355.00,250.06 354.53,257.00 353.96,258.07 C352.55,260.71 349.15,260.53 348.12,257.75 ZM 409.93 261.25 C409.97,261.66 410.58,262.00 411.30,262.00 C414.50,262.00 415.00,259.61 415.00,244.34 C415.00,229.88 414.89,229.01 412.91,227.95 C411.77,227.34 410.67,227.00 410.48,227.19 C410.19,227.47 409.70,258.55 409.93,261.25 ZM 349.00 243.50 C349.00,258.04 349.12,259.00 350.89,259.00 C353.64,259.00 354.00,257.21 354.00,243.50 C354.00,229.79 353.64,228.00 350.89,228.00 C349.12,228.00 349.00,228.96 349.00,243.50 Z" fill="rgb(197,228,135)"/>
<path d="M 0.00 265.00 L 0.00 0.00 L 235.50 0.00 L 471.00 0.00 L 471.00 265.00 L 471.00 530.00 L 235.50 530.00 L 0.00 530.00 L 0.00 265.00 ZM 228.00 313.49 L 228.00 300.99 L 143.75 301.24 L 59.50 301.50 L 59.22 313.75 L 58.94 326.00 L 143.47 326.00 L 228.00 326.00 L 228.00 313.49 ZM 391.10 309.05 C392.57,307.29 394.06,304.05 394.41,301.85 C395.37,295.84 395.03,232.08 394.02,227.58 C393.53,225.43 391.82,222.36 390.21,220.74 C386.37,216.91 378.71,216.35 374.33,219.59 C368.52,223.88 368.50,224.03 368.50,265.50 C368.50,299.36 368.68,303.84 370.20,306.60 C372.60,310.98 377.37,313.16 383.46,312.66 C387.57,312.32 388.89,311.70 391.10,309.05 ZM 328.24 309.58 C333.43,306.18 333.50,305.60 333.50,264.43 L 333.50 226.16 L 331.15 223.66 C327.66,219.94 324.11,218.87 316.42,219.20 L 309.50 219.50 L 309.24 264.93 C309.04,300.59 309.25,310.56 310.24,311.24 C312.20,312.60 325.50,311.37 328.24,309.58 ZM 349.00 290.50 C349.00,273.53 349.27,269.00 350.30,269.00 C353.56,269.00 354.00,271.34 354.00,288.58 C354.00,298.02 354.28,307.16 354.62,308.88 C355.23,311.92 355.39,312.00 360.73,312.00 C365.57,312.00 366.13,311.80 365.46,310.25 C365.05,309.29 364.53,300.17 364.30,290.00 C363.90,272.66 362.96,266.00 360.88,266.00 C359.39,266.00 359.90,264.06 362.21,260.93 C364.27,258.15 364.41,256.91 364.35,242.58 C364.30,228.52 364.10,226.90 362.08,223.62 C359.32,219.16 355.03,217.75 345.50,218.18 L 338.50 218.50 L 338.24 265.25 L 337.98 312.00 L 343.49 312.00 L 349.00 312.00 L 349.00 290.50 ZM 410.23 291.75 L 410.50 271.50 L 414.10 271.20 C416.22,271.02 419.00,269.79 420.87,268.20 C423.71,265.78 424.14,264.66 425.04,257.50 C426.31,247.37 425.28,228.63 423.21,224.13 C421.05,219.44 416.74,217.85 407.18,218.21 L 399.50 218.50 L 399.24 264.00 C399.10,289.02 399.19,310.06 399.46,310.75 C399.75,311.52 401.86,312.00 404.95,312.00 L 409.96 312.00 L 410.23 291.75 ZM 174.33 289.52 C179.57,284.86 184.10,280.64 184.41,280.15 C184.71,279.65 177.76,274.58 168.96,268.87 C160.16,263.17 148.36,255.45 142.73,251.73 C125.70,240.47 127.86,240.81 117.43,247.74 C112.52,251.00 104.76,256.05 100.19,258.97 C95.61,261.89 92.24,264.63 92.69,265.07 C93.13,265.50 101.60,269.67 111.50,274.32 C121.40,278.97 136.70,286.17 145.50,290.32 C154.30,294.47 162.24,297.90 163.15,297.93 C164.06,297.97 169.09,294.18 174.33,289.52 ZM 144.37 296.21 C144.81,295.50 65.01,257.35 60.75,256.23 C59.13,255.80 59.00,257.22 59.00,275.87 L 59.00 295.98 L 98.75 296.25 C120.61,296.40 139.71,296.63 141.19,296.76 C142.67,296.89 144.10,296.64 144.37,296.21 ZM 96.06 255.75 C101.30,252.31 109.96,246.64 115.30,243.15 C120.64,239.66 125.25,236.41 125.54,235.94 C126.16,234.94 126.36,205.02 125.75,204.42 C125.52,204.19 114.35,207.79 100.92,212.42 C87.49,217.05 72.68,222.12 68.00,223.69 L 59.50 226.55 L 59.50 238.02 L 59.50 249.50 L 72.00 255.69 C78.88,259.09 84.96,261.90 85.51,261.94 C86.07,261.97 90.82,259.19 96.06,255.75 ZM 379.24 265.25 L 379.50 227.50 L 381.67 227.19 L 383.85 226.88 L 384.19 263.69 C384.37,283.94 384.36,301.06 384.16,301.75 C383.95,302.44 382.70,303.00 381.38,303.00 L 378.98 303.00 L 379.24 265.25 ZM 318.46 302.75 C317.45,300.12 318.49,227.67 319.54,227.32 C320.11,227.13 321.46,227.62 322.54,228.41 C324.41,229.77 324.51,231.40 324.79,264.24 C325.07,297.94 325.03,298.69 322.96,301.32 C320.67,304.24 319.21,304.70 318.46,302.75 ZM 349.00 243.50 C349.00,228.96 349.12,228.00 350.89,228.00 C353.64,228.00 354.00,229.79 354.00,243.50 C354.00,257.21 353.64,259.00 350.89,259.00 C349.12,259.00 349.00,258.04 349.00,243.50 ZM 409.93 261.25 C409.70,258.55 410.19,227.47 410.48,227.19 C410.67,227.00 411.77,227.34 412.91,227.95 C414.89,229.01 415.00,229.88 415.00,244.34 C415.00,259.61 414.50,262.00 411.30,262.00 C410.58,262.00 409.97,261.66 409.93,261.25 Z" fill="rgb(254,254,254)"/>
</g>
</svg>