<svg xmlns="http://www.w3.org/2000/svg" width="478" height="522" viewBox="0 0 478 522">
<g>
<path d="M 249.98 279.18 C243.89,283.69 235.08,281.67 231.75,275.00 C230.24,271.97 230.00,268.37 230.00,248.00 C230.00,227.62 230.24,224.04 231.75,221.01 C234.10,216.33 237.30,214.83 243.92,215.30 C253.80,216.01 255.01,219.69 254.94,249.00 C254.88,272.16 254.25,276.02 249.98,279.18 ZM 218.45 280.58 C214.32,282.31 212.39,282.31 208.50,280.60 C202.91,278.13 201.68,275.75 201.19,266.47 L 200.75 258.00 L 209.77 258.00 L 210.17 265.06 C210.57,272.15 211.80,274.40 214.66,273.30 C215.62,272.93 216.00,270.59 216.00,265.00 L 216.00 257.21 L 209.05 249.56 C201.36,241.08 200.22,237.83 201.31,227.32 C202.24,218.27 205.65,215.00 214.13,215.00 C222.12,215.00 225.00,218.97 225.00,229.95 L 225.00 237.00 L 216.00 237.00 L 216.00 230.47 C216.00,225.33 215.65,223.80 214.36,223.31 C210.68,221.90 208.62,230.25 211.06,236.67 C211.65,238.20 214.77,242.22 218.01,245.59 C224.79,252.65 225.51,254.58 225.47,265.59 C225.43,274.95 223.85,278.33 218.45,280.58 ZM 302.00 273.10 L 302.00 281.00 L 282.00 281.00 L 282.00 216.00 L 302.00 216.00 L 302.00 224.00 L 291.00 224.00 L 291.00 243.00 L 300.00 243.00 L 300.00 252.00 L 290.93 252.00 L 291.22 262.25 L 291.50 272.50 L 296.75 272.80 ZM 279.00 273.11 L 279.00 281.00 L 260.00 281.00 L 260.00 216.00 L 268.97 216.00 L 269.23 244.25 L 269.50 272.50 L 274.25 272.80 ZM 240.62 272.48 C242.15,274.01 242.42,274.01 243.89,272.54 C245.28,271.15 245.50,267.73 245.50,248.02 C245.50,223.84 245.04,221.22 241.22,223.63 C239.69,224.60 239.47,227.22 239.23,247.77 C238.99,268.15 239.16,271.01 240.62,272.48 Z" fill="rgb(21,21,21)"/>
<path d="M 226.00 297.00 L 226.00 321.00 L 143.17 321.00 C97.61,321.00 60.03,320.70 59.67,320.33 C59.30,319.97 59.00,314.57 59.00,308.33 L 59.00 297.00 ZM 110.73 241.61 C102.90,246.62 94.03,252.29 91.00,254.21 L 85.50 257.69 L 72.26 251.60 L 59.01 245.50 L 59.50 223.69 L 91.00 212.86 C108.32,206.90 123.06,202.02 123.75,202.01 C124.70,202.00 125.00,205.70 124.98,217.25 L 124.96 232.50 ZM 173.49 284.33 C168.14,289.10 163.03,292.97 162.14,292.94 C160.76,292.89 129.96,278.74 99.56,264.20 L 91.61 260.40 L 108.30 249.70 C117.48,243.82 125.44,239.00 125.99,239.00 C126.90,239.00 176.18,270.37 181.10,274.08 C183.16,275.63 183.00,275.85 173.49,284.33 ZM 142.34 291.25 C141.77,292.18 60.59,292.26 59.67,291.33 C58.81,290.48 58.79,252.00 59.64,252.00 C60.20,252.00 94.43,267.82 130.65,284.80 C137.33,287.94 142.59,290.84 142.34,291.25 Z" fill="rgb(78,32,151)"/>
<path d="M 385.00 305.06 C379.31,309.04 370.08,307.82 366.95,302.68 C365.12,299.68 365.01,297.33 365.00,261.25 C365.00,234.99 365.33,223.00 366.06,223.00 C366.64,223.00 366.84,222.55 366.50,222.00 C366.16,221.45 366.39,221.00 367.00,221.00 C367.61,221.00 367.86,220.59 367.55,220.08 C366.41,218.23 372.15,215.00 376.59,215.00 C381.95,215.00 385.45,216.54 387.74,219.90 C389.33,222.25 389.53,226.08 389.81,259.00 C390.14,298.48 389.80,301.70 385.00,305.06 ZM 323.47 305.58 C321.59,306.36 316.91,307.00 313.04,307.00 L 306.03 307.00 L 306.08 215.00 L 312.79 215.06 C322.06,215.13 326.09,216.69 328.25,221.00 C329.82,224.14 330.00,228.27 330.00,261.30 C330.00,302.26 329.91,302.89 323.47,305.58 ZM 345.00 285.50 L 345.00 307.00 L 336.04 307.00 L 336.04 214.75 L 344.27 215.19 C358.82,215.98 360.28,218.36 359.82,240.47 C359.52,254.84 359.35,256.00 357.23,258.25 C354.97,260.66 354.97,260.67 356.96,262.47 C359.62,264.87 359.93,267.36 360.24,288.80 L 360.50 307.09 L 356.00 306.80 L 351.50 306.50 L 351.00 286.90 C350.49,266.97 349.89,264.00 346.38,264.00 C345.25,264.00 345.00,267.90 345.00,285.50 ZM 404.00 267.26 L 404.00 307.00 L 395.00 307.00 L 395.00 214.76 L 404.04 215.19 C412.07,215.57 413.36,215.90 415.61,218.15 C419.05,221.60 419.95,226.32 419.95,241.00 C419.95,260.85 417.97,265.40 408.84,266.62 ZM 374.71 298.38 C375.10,298.77 376.34,298.95 377.46,298.79 C379.33,298.52 379.56,297.53 380.26,286.50 C381.35,269.18 380.68,225.28 379.31,223.91 C378.70,223.30 377.26,223.10 376.10,223.47 C374.02,224.13 374.00,224.43 374.00,260.90 C374.00,281.12 374.32,297.99 374.71,298.38 ZM 315.00 261.07 L 315.00 298.13 L 317.75 297.82 L 320.50 297.50 L 320.76 262.12 C321.04,225.36 320.90,224.00 316.88,224.00 C315.07,224.00 315.00,225.47 315.00,261.07 ZM 404.44 257.71 C405.08,259.36 406.15,259.34 408.50,257.62 C410.23,256.36 410.37,254.93 410.16,240.87 C409.97,227.84 409.68,225.31 408.26,224.24 C407.33,223.54 406.11,223.13 405.54,223.32 C404.48,223.67 403.47,255.19 404.44,257.71 ZM 345.00 240.06 C345.00,255.24 345.09,256.00 346.96,256.00 C350.33,256.00 351.19,252.50 351.13,239.14 C351.08,227.46 350.92,226.37 348.94,224.76 C347.76,223.80 346.39,223.26 345.90,223.56 C345.40,223.87 345.00,231.29 345.00,240.06 Z" fill="rgb(120,63,211)"/>
<path d="M 0.00 261.00 L 0.00 0.00 L 239.00 0.00 L 478.00 0.00 L 478.00 261.00 L 478.00 522.00 L 239.00 522.00 L 0.00 522.00 L 0.00 261.00 ZM 226.00 309.00 L 226.00 297.00 L 142.50 297.00 L 59.00 297.00 L 59.00 308.33 C59.00,314.57 59.30,319.97 59.67,320.33 C60.03,320.70 97.61,321.00 143.17,321.00 L 226.00 321.00 L 226.00 309.00 ZM 385.00 305.06 C389.80,301.70 390.14,298.48 389.81,259.00 C389.53,226.08 389.33,222.25 387.74,219.90 C385.45,216.54 381.95,215.00 376.59,215.00 C372.15,215.00 366.41,218.23 367.55,220.08 C367.86,220.59 367.61,221.00 367.00,221.00 C366.39,221.00 366.16,221.45 366.50,222.00 C366.84,222.55 366.64,223.00 366.06,223.00 C365.33,223.00 365.00,234.99 365.00,261.25 C365.01,297.33 365.12,299.68 366.95,302.68 C370.08,307.82 379.31,309.04 385.00,305.06 ZM 323.47 305.58 C329.91,302.89 330.00,302.26 330.00,261.30 C330.00,228.27 329.82,224.14 328.25,221.00 C326.09,216.69 322.06,215.13 312.79,215.06 L 306.08 215.00 L 306.05 261.00 L 306.03 307.00 L 313.04 307.00 C316.91,307.00 321.59,306.36 323.47,305.58 ZM 345.00 285.50 C345.00,267.90 345.25,264.00 346.38,264.00 C349.89,264.00 350.49,266.97 351.00,286.90 L 351.50 306.50 L 356.00 306.80 L 360.50 307.09 L 360.24 288.80 C359.93,267.36 359.62,264.87 356.96,262.47 C354.97,260.67 354.97,260.66 357.23,258.25 C359.35,256.00 359.52,254.84 359.82,240.47 C360.28,218.36 358.82,215.98 344.27,215.19 L 336.04 214.75 L 336.04 260.88 L 336.04 307.00 L 340.52 307.00 L 345.00 307.00 L 345.00 285.50 ZM 404.00 287.13 L 404.00 267.26 L 408.84 266.62 C417.97,265.40 419.95,260.85 419.95,241.00 C419.95,226.32 419.05,221.60 415.61,218.15 C413.36,215.90 412.07,215.57 404.04,215.19 L 395.00 214.76 L 395.00 260.88 L 395.00 307.00 L 399.50 307.00 L 404.00 307.00 L 404.00 287.13 ZM 173.49 284.33 C183.00,275.85 183.16,275.63 181.10,274.08 C176.18,270.37 126.90,239.00 125.99,239.00 C125.44,239.00 117.48,243.82 108.30,249.70 L 91.61 260.40 L 99.56 264.20 C129.96,278.74 160.76,292.89 162.14,292.94 C163.03,292.97 168.14,289.10 173.49,284.33 ZM 142.34 291.25 C142.59,290.84 137.33,287.94 130.65,284.80 C94.43,267.82 60.20,252.00 59.64,252.00 C58.79,252.00 58.81,290.48 59.67,291.33 C60.59,292.26 141.77,292.18 142.34,291.25 ZM 218.45 280.58 C223.85,278.33 225.43,274.95 225.47,265.59 C225.51,254.58 224.79,252.65 218.01,245.59 C214.77,242.22 211.65,238.20 211.06,236.67 C208.62,230.25 210.68,221.90 214.36,223.31 C215.65,223.80 216.00,225.33 216.00,230.47 L 216.00 237.00 L 220.50 237.00 L 225.00 237.00 L 225.00 229.95 C225.00,218.97 222.12,215.00 214.13,215.00 C205.65,215.00 202.24,218.27 201.31,227.32 C200.22,237.83 201.36,241.08 209.05,249.56 L 216.00 257.21 L 216.00 265.00 C216.00,270.59 215.62,272.93 214.66,273.30 C211.80,274.40 210.57,272.15 210.17,265.06 L 209.77 258.00 L 205.26 258.00 L 200.75 258.00 L 201.19 266.47 C201.68,275.75 202.91,278.13 208.50,280.60 C212.39,282.31 214.32,282.31 218.45,280.58 ZM 249.98 279.18 C254.25,276.02 254.88,272.16 254.94,249.00 C255.01,219.69 253.80,216.01 243.92,215.30 C237.30,214.83 234.10,216.33 231.75,221.01 C230.24,224.04 230.00,227.62 230.00,248.00 C230.00,268.37 230.24,271.97 231.75,275.00 C235.08,281.67 243.89,283.69 249.98,279.18 ZM 279.00 277.05 L 279.00 273.11 L 274.25 272.80 L 269.50 272.50 L 269.23 244.25 L 268.97 216.00 L 264.48 216.00 L 260.00 216.00 L 260.00 248.50 L 260.00 281.00 L 269.50 281.00 L 279.00 281.00 L 279.00 277.05 ZM 302.00 277.05 L 302.00 273.10 L 296.75 272.80 L 291.50 272.50 L 291.22 262.25 L 290.93 252.00 L 295.47 252.00 L 300.00 252.00 L 300.00 247.50 L 300.00 243.00 L 295.50 243.00 L 291.00 243.00 L 291.00 233.50 L 291.00 224.00 L 296.50 224.00 L 302.00 224.00 L 302.00 220.00 L 302.00 216.00 L 292.00 216.00 L 282.00 216.00 L 282.00 248.50 L 282.00 281.00 L 292.00 281.00 L 302.00 281.00 L 302.00 277.05 ZM 110.73 241.61 L 124.96 232.50 L 124.98 217.25 C125.00,205.70 124.70,202.00 123.75,202.01 C123.06,202.02 108.32,206.90 91.00,212.86 L 59.50 223.69 L 59.26 234.59 L 59.01 245.50 L 72.26 251.60 L 85.50 257.69 L 91.00 254.21 C94.03,252.29 102.90,246.62 110.73,241.61 ZM 374.71 298.38 C374.32,297.99 374.00,281.12 374.00,260.90 C374.00,224.43 374.02,224.13 376.10,223.47 C377.26,223.10 378.70,223.30 379.31,223.91 C380.68,225.28 381.35,269.18 380.26,286.50 C379.56,297.53 379.33,298.52 377.46,298.79 C376.34,298.95 375.10,298.77 374.71,298.38 ZM 315.00 261.07 C315.00,225.47 315.07,224.00 316.88,224.00 C320.90,224.00 321.04,225.36 320.76,262.12 L 320.50 297.50 L 317.75 297.82 L 315.00 298.13 L 315.00 261.07 ZM 345.00 240.06 C345.00,231.29 345.40,223.87 345.90,223.56 C346.39,223.26 347.76,223.80 348.94,224.76 C350.92,226.37 351.08,227.46 351.13,239.14 C351.19,252.50 350.33,256.00 346.96,256.00 C345.09,256.00 345.00,255.24 345.00,240.06 ZM 404.44 257.71 C403.47,255.19 404.48,223.67 405.54,223.32 C406.11,223.13 407.33,223.54 408.26,224.24 C409.68,225.31 409.97,227.84 410.16,240.87 C410.37,254.93 410.23,256.36 408.50,257.62 C406.15,259.34 405.08,259.36 404.44,257.71 ZM 240.62 272.48 C239.16,271.01 238.99,268.15 239.23,247.77 C239.47,227.22 239.69,224.60 241.22,223.63 C245.04,221.22 245.50,223.84 245.50,248.02 C245.50,267.73 245.28,271.15 243.89,272.54 C242.42,274.01 242.15,274.01 240.62,272.48 Z" fill="rgb(254,254,254)"/>
</g>
</svg>